<svg xmlns="http://www.w3.org/2000/svg" version="1.1" xmlns:xlink="http://www.w3.org/1999/xlink" xmlns:svgjs="http://svgjs.dev/svgjs" width="1000" height="224" viewBox="0 0 1000 224"><g transform="matrix(1,0,0,1,-0.6060606060606233,0.48397669459536985)"><svg viewBox="0 0 396 89" data-background-color="#f9f9f9" preserveAspectRatio="xMidYMid meet" height="224" width="1000" xmlns="http://www.w3.org/2000/svg" xmlns:xlink="http://www.w3.org/1999/xlink"><g id="tight-bounds" transform="matrix(1,0,0,1,0.2400000000000091,-0.19229431169191002)"><svg viewBox="0 0 395.52 89.3845886233838" height="89.3845886233838" width="395.52"><g><svg viewBox="0 0 567.210006719229 128.1852576700674" height="89.3845886233838" width="395.52"><g><rect width="7.079105751516747" height="128.1852576700674" x="146.07921051871554" y="0" fill="#030303" opacity="1" stroke-width="0" stroke="transparent" fill-opacity="1" class="rect-s$-0" data-fill-palette-color="primary" rx="1%" id="s$-0" data-palette-color="#030303"></rect></g><g transform="matrix(1,0,0,1,171.69000671922902,0.3188688001742861)"><svg viewBox="0 0 395.52 127.54752006971881" height="127.54752006971881" width="395.52"><g id="textblocktransform"><svg viewBox="0 0 395.52 127.54752006971881" height="127.54752006971881" width="395.52" id="textblock"><g><svg viewBox="0 0 395.52 78.49883278688525" height="78.49883278688525" width="395.52"><g transform="matrix(1,0,0,1,0,0)"><svg width="395.52" viewBox="2.34 -35.55 223.37 44.339999999999996" height="78.49883278688525" data-palette-color="#030303"><path d="M17.19 0.44L17.19 0.44Q12.84 0.44 9.5-1.42 6.15-3.27 4.25-6.57 2.34-9.86 2.34-14.11L2.34-14.11Q2.34-18.46 4.27-21.83 6.2-25.2 9.57-27.15 12.94-29.1 17.29-29.1L17.29-29.1Q21.48-29.1 24.66-27.27 27.83-25.44 29.64-22.17 31.45-18.9 31.45-14.6L31.45-14.6Q31.45-11.13 30.25-8.37 29.05-5.62 27.03-3.64 25-1.66 22.44-0.61 19.87 0.44 17.19 0.44ZM17.63-2.54L17.63-2.54Q20.12-2.54 21.92-3.83 23.73-5.13 24.68-7.59 25.63-10.06 25.63-13.38L25.63-13.38Q25.63-17.33 24.51-20.24 23.39-23.14 21.39-24.78 19.38-26.42 16.7-26.42L16.7-26.42Q12.79-26.42 10.55-23.41 8.3-20.41 8.3-15.19L8.3-15.19Q8.3-11.47 9.5-8.62 10.69-5.76 12.79-4.15 14.89-2.54 17.63-2.54ZM59.18-7.62L57.08 0.24Q56.2 0.2 55.15 0.15 54.1 0.1 53.1 0.05 52.1 0 51.36 0L51.36 0 36.03 0 35.89-2.05 38.96-2.73Q39.01-2.98 39.06-3.93 39.11-4.88 39.13-6.45 39.16-8.01 39.16-10.06L39.16-10.06 39.16-18.55Q39.16-20.65 39.16-22.22 39.16-23.78 39.11-24.73 39.06-25.68 38.96-25.88L38.96-25.88 35.89-26.61 36.03-28.66 48.34-28.66 48.48-26.51 44.43-25.88Q44.38-25.73 44.31-24.85 44.24-23.97 44.19-22.39 44.14-20.8 44.14-18.55L44.14-18.55 44.14-10.06Q44.14-7.42 44.19-5.59 44.24-3.76 44.28-3.17L44.28-3.17Q45.02-3.08 45.8-3.03 46.58-2.98 47.65-2.98L47.65-2.98 50.68-2.98Q51.8-2.98 52.61-3.05 53.42-3.13 54.1-3.22L54.1-3.22 56.74-8.2 59.18-7.62ZM67.91 0L59.32 0 59.17-2.05 61.66-2.73 71.63-27.64 74.9-29.54 85.74-2.73 88.18-2.05 88.03 0 77.14 0 77.05-2.05 80.07-2.73 77.24-9.72 76.7-11.28 71.53-23.97 72.75-24.27 68.01-11.33 67.48-9.86 64.99-2.73 68.01-2.05 67.91 0ZM66.45-8.79L66.45-8.79 66.45-11.62Q67.38-11.57 68.84-11.5 70.31-11.43 72.55-11.43L72.55-11.43Q74.75-11.43 76.26-11.5 77.78-11.57 78.66-11.62L78.66-11.62 78.66-8.84Q77.24-8.84 75.7-8.89 74.16-8.94 72.55-8.94L72.55-8.94Q70.94-8.94 69.45-8.89 67.96-8.84 66.45-8.79ZM91.35 8.79L87.69 8.79 102.39-35.55 106.05-35.55 91.35 8.79ZM116.3 0.44L116.3 0.44Q114.2 0.44 111.86-0.1 109.51-0.63 108-1.51L108-1.51 107.7-8.15 110.15-8.35 111.61-3.76Q112.78-3.03 114.17-2.64 115.57-2.25 117.03-2.25L117.03-2.25Q119.37-2.25 120.72-3.32 122.06-4.39 122.06-6.25L122.06-6.25Q122.06-8.01 121.03-9.11 120.01-10.21 118.4-11.01 116.79-11.82 114.96-12.6 113.12-13.38 111.51-14.43 109.9-15.48 108.88-17.02 107.85-18.55 107.85-20.9L107.85-20.9Q107.85-23.34 109.22-25.22 110.59-27.1 113.05-28.15 115.52-29.2 118.74-29.2L118.74-29.2Q119.96-29.2 121.18-29.05 122.4-28.91 123.5-28.64 124.6-28.37 125.48-27.98L125.48-27.98 125.92-21.53 123.48-21.34 122.06-25.68Q120.5-26.61 118.2-26.61L118.2-26.61Q115.86-26.61 114.44-25.46 113.03-24.32 113.03-22.41L113.03-22.41Q113.03-20.7 114.05-19.56 115.08-18.41 116.71-17.55 118.35-16.7 120.2-15.92 122.06-15.14 123.7-14.11 125.33-13.09 126.36-11.6 127.38-10.11 127.38-7.86L127.38-7.86Q127.38-5.47 125.97-3.59 124.55-1.71 122.06-0.63 119.57 0.44 116.3 0.44ZM150.67-24.8L152.33-20.75 143.74 0.15 141.49 0.15 131.04-25.93 128.6-26.61 128.7-28.66 139.15-28.66 139.25-26.61 136.8-25.93 144.67-5.37 143.25-5.37 150.67-24.8ZM161.56 0.15L159.26 0.15 148.86-25.93 146.37-26.61 146.52-28.66 157.31-28.66 157.46-26.61 154.48-25.93 162.39-5.37 161.02-5.37 168.54-25.93 165.12-26.61 165.27-28.66 174.55-28.66 174.69-26.61 172.2-25.93 161.56 0.15ZM181.53 0L172.93 0 172.79-2.05 175.28-2.73 185.24-27.64 188.51-29.54 199.35-2.73 201.79-2.05 201.65 0 190.76 0 190.66-2.05 193.69-2.73 190.85-9.72 190.32-11.28 185.14-23.97 186.36-24.27 181.63-11.33 181.09-9.86 178.6-2.73 181.63-2.05 181.53 0ZM180.06-8.79L180.06-8.79 180.06-11.62Q180.99-11.57 182.46-11.5 183.92-11.43 186.17-11.43L186.17-11.43Q188.36-11.43 189.88-11.5 191.39-11.57 192.27-11.62L192.27-11.62 192.27-8.84Q190.85-8.84 189.32-8.89 187.78-8.94 186.17-8.94L186.17-8.94Q184.56-8.94 183.07-8.89 181.58-8.84 180.06-8.79ZM216.05 0L203.99 0 203.89-2.05 206.72-2.73Q206.82-2.93 206.87-3.71 206.92-4.49 206.94-5.98 206.96-7.47 206.96-9.81L206.96-9.81 207.01-19.04Q207.01-21.29 206.96-22.75 206.92-24.22 206.89-25 206.87-25.78 206.77-25.93L206.77-25.93 203.74-26.61 203.84-28.66 214.88-28.66Q220.1-28.66 222.91-26.51 225.71-24.37 225.71-20.36L225.71-20.36Q225.71-17.68 224.3-15.63 222.88-13.57 220.42-12.43 217.95-11.28 214.83-11.28L214.83-11.28Q213.8-11.28 212.9-11.38 211.99-11.47 211.21-11.62L211.21-11.62 211.21-14.5Q212.09-14.21 212.95-14.06 213.8-13.92 214.73-13.92L214.73-13.92Q217.41-13.92 218.93-15.36 220.44-16.8 220.44-19.73L220.44-19.73Q220.44-23.14 218.68-24.73 216.93-26.32 214.19-26.32L214.19-26.32 211.99-26.32Q211.99-25.98 211.97-24.98 211.95-23.97 211.92-22.46 211.9-20.95 211.9-19.04L211.9-19.04 211.95-9.81Q211.95-7.47 211.99-5.98 212.04-4.49 212.09-3.76 212.14-3.03 212.19-2.83L212.19-2.83 216.19-2.15 216.05 0Z" opacity="1" transform="matrix(1,0,0,1,0,0)" fill="#030303" class="undefined-text-0" data-fill-palette-color="primary" id="text-0"></path></svg></g></svg></g><g transform="matrix(1,0,0,1,0,97.03052323588196)"><svg viewBox="0 0 232.209792 30.516996833836856" height="30.516996833836856" width="232.209792"><g transform="matrix(1,0,0,1,0,0)"><svg width="232.209792" viewBox="1.17 -31.1 307.05 40.35" height="30.516996833836856" data-palette-color="#030303"><path d="M1.17-28.93L5.54-28.1 5.54-2.34 1.42-1.42 1.29 0 14.75 0 15.04-1.66 9.16-2.34 9.18-14.14 16.53-14.14 17.11-9.55 18.8-9.81 19.51-19.34 17.77-19.09 16.77-15.92 9.18-15.92 9.18-28.64 21.31-28.64 22-22.78 23.66-22.53 24.56-30.37 1.37-30.37 1.17-28.93ZM36.55 0.66Q39.21 0.66 41.45-0.78 43.7-2.22 45.02-4.81 46.34-7.4 46.34-10.72L46.34-10.72Q46.34-13.84 45.21-16.36 44.09-18.87 42-20.31 39.91-21.75 37.16-21.75L37.16-21.75Q34.4-21.75 32.05-20.34 29.71-18.92 28.33-16.27 26.95-13.62 26.95-10.03L26.95-10.03Q26.95-6.88 28.13-4.46 29.32-2.03 31.5-0.68 33.69 0.66 36.55 0.66L36.55 0.66ZM36.11-19.68Q38.28-19.68 39.82-18.15 41.35-16.63 42.12-14.23 42.89-11.84 42.89-9.28L42.89-9.28Q42.89-7.1 42.23-5.29 41.57-3.47 40.33-2.39 39.08-1.32 37.4-1.32L37.4-1.32Q35.15-1.32 33.57-2.77 31.98-4.22 31.19-6.62 30.39-9.01 30.39-11.79L30.39-11.79Q30.39-13.96 31.06-15.77 31.74-17.58 33.03-18.63 34.32-19.68 36.11-19.68L36.11-19.68ZM57.71 0.73Q59.22 0.73 60.71 0.28 62.2-0.17 63.37-0.9 64.55-1.64 65.18-2.49L65.18-2.49 64.67-3.61Q62.3-1.68 59.32-1.68L59.32-1.68Q57.12-1.68 55.51-2.99 53.9-4.3 53.05-6.58 52.19-8.86 52.19-11.72L52.19-11.72Q52.19-14.23 52.88-16.05 53.56-17.87 54.73-18.82 55.9-19.78 57.37-19.78L57.37-19.78Q59-19.78 60.05-18.6 61.1-17.43 61.86-15.31L61.86-15.31Q64.18-15.7 64.18-17.72L64.18-17.72Q64.18-18.75 63.59-19.65 63.01-20.56 61.75-21.12 60.49-21.68 58.54-21.68L58.54-21.68Q55.88-21.68 53.64-20.23 51.41-18.77 50.09-16.09 48.77-13.4 48.77-9.89L48.77-9.89Q48.77-6.93 49.85-4.52 50.92-2.1 52.95-0.68 54.98 0.73 57.71 0.73L57.71 0.73ZM70.72-18.48L70.72-6.71Q70.72 0.59 76.29 0.59L76.29 0.59Q78.29 0.59 80.06-0.39 81.83-1.37 83.07-3.22L83.07-3.22 83.37-3.22 83.37-2.93Q83.37-1.44 84.25-0.46 85.12 0.51 86.71 0.51L86.71 0.51Q87.57 0.51 88.25 0.39 88.93 0.27 89.79 0.02L89.79 0.02 89.96-1.42 88.64-1.71Q87.25-1.98 86.74-2.8 86.22-3.61 86.22-5.44L86.22-5.44 86.22-20.92 85.88-21.34 79.39-20.75 79.24-19.29 83.07-18.41 83.07-4.57Q82.12-3.52 80.84-2.81 79.56-2.1 78.04-2.1L78.04-2.1Q73.85-2.1 73.85-7.74L73.85-7.74 73.85-20.92 73.45-21.34 67.38-20.83 67.18-19.53 70.72-18.48ZM99.11 0.85Q100.99 0.85 102.68 0.09 104.36-0.68 105.39-2.05 106.41-3.42 106.41-5.18L106.41-5.18Q106.41-6.67 105.62-7.84 104.82-9.01 103.69-9.86 102.55-10.72 100.7-11.84L100.7-11.84Q99.06-12.82 98.1-13.51 97.13-14.21 96.49-15.11 95.84-16.02 95.84-17.09L95.84-17.09Q95.84-18.46 96.72-19.3 97.6-20.14 99.09-20.14L99.09-20.14Q100.36-20.14 101.32-19.13 102.28-18.12 102.87-15.53L102.87-15.53 103.07-14.58Q104.24-14.67 104.93-15.37 105.63-16.06 105.63-17.41L105.63-17.41Q105.63-18.63 104.9-19.6 104.16-20.58 102.88-21.14 101.6-21.7 100.01-21.7L100.01-21.7Q97.82-21.7 96.29-20.8 94.77-19.9 94.01-18.48 93.25-17.07 93.25-15.55L93.25-15.55Q93.25-13.94 94.08-12.68 94.91-11.43 96.07-10.55 97.23-9.67 99.14-8.52L99.14-8.52Q100.65-7.59 101.52-6.98 102.38-6.37 102.96-5.59 103.53-4.81 103.53-3.91L103.53-3.91Q103.53-2.64 102.5-1.81 101.48-0.98 99.89-0.98L99.89-0.98Q97.94-0.98 96.74-2.27 95.55-3.56 94.94-6.45L94.94-6.45Q93.81-6.32 93.08-5.59 92.35-4.86 92.35-3.76L92.35-3.76Q92.35-2.44 93.23-1.39 94.11-0.34 95.64 0.26 97.18 0.85 99.11 0.85L99.11 0.85ZM129.84 0.66Q134.63 0.66 138.06-1.59 141.49-3.83 143.22-7.48 144.96-11.13 144.96-15.23L144.96-15.23Q144.96-19.68 143.37-23.29 141.78-26.9 138.75-29 135.73-31.1 131.55-31.1L131.55-31.1Q126.99-31.1 123.56-29.09 120.13-27.08 118.28-23.45 116.44-19.82 116.44-15.14L116.44-15.14Q116.44-10.79 118.12-7.18 119.81-3.56 122.86-1.45 125.91 0.66 129.84 0.66L129.84 0.66ZM130.36-29.22Q133.73-29.22 136.11-27.16 138.49-25.1 139.69-21.63 140.9-18.16 140.9-14.01L140.9-14.01Q140.9-10.82 139.89-7.95 138.88-5.08 136.65-3.25 134.43-1.42 131.02-1.42L131.02-1.42Q127.6-1.42 125.23-3.45 122.86-5.49 121.69-8.94 120.52-12.38 120.52-16.55L120.52-16.55Q120.52-19.97 121.51-22.83 122.49-25.68 124.7-27.45 126.91-29.22 130.36-29.22L130.36-29.22ZM157.72 0L157.97-1.42 154.4-2.1 154.4-16.36Q155.87-17.82 157.18-18.44 158.5-19.07 160.21-19.07L160.21-19.07Q162.04-19.07 163.2-17.79 164.36-16.5 164.36-13.87L164.36-13.87 164.36-2.1 160.94-1.27 160.75 0 170.83 0 171-1.42 167.56-2.1 167.56-14.65Q167.56-18.16 166.05-19.95 164.53-21.73 161.92-21.73L161.92-21.73Q159.7-21.73 157.62-20.53 155.55-19.34 154.33-17.82L154.33-17.82 154.13-17.82 154.38-21.04 154.08-21.39 147.61-20.65 147.44-19.38 151.23-18.43 151.23-2.1 147.49-1.27 147.3 0 157.72 0ZM181.23 0L204.32 0 205.15-8.08 203.59-8.33 201.03-1.83 189.14-1.83 189.14-28.13 193.41-28.96 193.58-30.37 181.33-30.37 181.11-28.96 185.5-28.03 185.5-2.34 181.42-1.42 181.23 0ZM212.43 0.61Q214.18 0.61 215.59-0.01 216.99-0.63 217.89-1.5 218.8-2.37 219.21-3.17L219.21-3.17 219.41-3.17 219.41-2.83Q219.41-1.49 220.28-0.52 221.14 0.44 222.83 0.44L222.83 0.44Q223.49 0.44 224 0.35 224.51 0.27 225.24 0.07L225.24 0.07 225.73-0.05 225.95-1.51 224.54-1.78Q223.46-1.95 222.94-2.42 222.41-2.88 222.25-3.61 222.09-4.35 222.09-5.62L222.09-5.62 222.09-14.18Q222.09-18.02 220.65-19.81 219.21-21.61 216.06-21.61L216.06-21.61Q214.31-21.61 212.5-20.9 210.69-20.19 209.52-19.03 208.35-17.87 208.35-16.63L208.35-16.63Q208.35-15.38 209.15-14.9 209.96-14.43 211.11-14.43L211.11-14.43Q211.23-16.43 211.5-17.55 211.77-18.68 212.41-19.26 213.06-19.85 214.31-19.85L214.31-19.85Q216.82-19.85 217.91-18.04 218.99-16.24 218.99-12.89L218.99-12.89 218.99-11.25Q215.16-11.08 212.56-10.12 209.96-9.16 208.68-7.56 207.4-5.96 207.4-3.88L207.4-3.88Q207.4-2.51 208.09-1.49 208.79-0.46 209.94 0.07 211.08 0.61 212.43 0.61L212.43 0.61ZM218.99-10.01L218.99-4.57Q218.33-3.39 216.99-2.56 215.65-1.73 214.04-1.73L214.04-1.73Q213.06-1.73 212.33-2.17 211.6-2.61 211.22-3.33 210.84-4.05 210.84-4.81L210.84-4.81Q210.84-9.13 218.99-10.01L218.99-10.01ZM230.83 9.25Q232.71 9.25 234.07 8.46 235.42 7.67 236.53 5.96 237.64 4.25 238.82 1.29L238.82 1.29 246.87-18.85 249.34-19.73 249.46-21.02 241.72-21.02 241.45-19.68 244.63-18.82 239.01-4.76 233.76-18.92 236.86-19.73 237.01-21.02 227.66-21.02 227.44-19.65 230.47-18.85 237.25-0.29 236.69 1.2Q234.96 5.59 232.25 5.59L232.25 5.59Q231.03 5.59 230.15 5.29 229.27 4.98 228.39 4.3L228.39 4.3Q227.29 5.25 227.29 6.69L227.29 6.69Q227.29 7.4 227.76 7.98 228.22 8.57 229.03 8.91 229.83 9.25 230.83 9.25L230.83 9.25ZM260.57 0.73Q262.91 0.73 264.86-0.15 266.82-1.03 268.11-2.54L268.11-2.54 267.65-3.61Q266.28-2.69 265.03-2.29 263.79-1.9 262.25-1.9L262.25-1.9Q259.96-1.9 258.39-3.15 256.83-4.39 256.06-6.42 255.29-8.45 255.24-10.86L255.24-10.86 267.06-11.01Q267.23-11.65 267.35-12.63 267.47-13.62 267.47-14.21L267.47-14.21Q267.47-17.92 265.83-19.78 264.18-21.63 261.37-21.63L261.37-21.63Q258.95-21.63 256.74-20.28 254.54-18.92 253.17-16.33 251.8-13.75 251.8-10.25L251.8-10.25Q251.8-6.69 253-4.21 254.19-1.73 256.18-0.5 258.17 0.73 260.57 0.73L260.57 0.73ZM260.18-19.75Q261.96-19.75 262.99-18.43 264.03-17.11 264.03-14.89L264.03-14.89Q264.03-13.43 263.86-12.94L263.86-12.94 255.29-12.38Q255.34-14.77 256.01-16.43 256.68-18.09 257.77-18.92 258.86-19.75 260.18-19.75L260.18-19.75ZM282.95 0L283.15-1.49 277.53-2.15 277.53-11.33Q277.8-13.31 278.43-14.93 279.07-16.55 279.96-17.5 280.85-18.46 281.83-18.46L281.83-18.46Q283.2-18.46 284.44-17.19L284.44-17.19Q285.15-17.68 285.55-18.29 285.95-18.9 285.95-19.51L285.95-19.51Q285.95-20.48 285.22-21.17 284.49-21.85 283.24-21.85L283.24-21.85Q282.07-21.85 280.94-21.02 279.8-20.19 278.89-18.64 277.97-17.09 277.38-15.01L277.38-15.01 277.04-15.01 277.38-21 276.99-21.41 270.67-20.7 270.45-19.43 274.36-18.48 274.36-2.1 270.57-1.27 270.38 0 282.95 0ZM288.34 0L307.07 0 308.22-8.62 306.87-8.81 304.55-2.88 292.37-2.88 294.3-4.39Q298.72-7.91 301.21-10.19 303.7-12.48 305.38-15.21 307.07-17.94 307.07-21L307.07-21Q307.07-25.17 304.82-27.34 302.58-29.52 298.72-29.52L298.72-29.52Q296.94-29.52 295.16-28.98 293.37-28.44 291.99-27.58 290.61-26.71 289.93-25.81L289.93-25.81 290.17-19.24 291.57-19.04 292.57-24.93Q293.15-26.03 294.46-26.78 295.77-27.54 297.6-27.54L297.6-27.54Q300.31-27.54 301.56-25.55 302.82-23.56 302.82-20.56L302.82-20.56Q302.82-18.02 301.82-15.81 300.82-13.6 298.94-11.5 297.06-9.4 294.01-6.79L294.01-6.79 288.2-1.81 288.34 0Z" opacity="1" transform="matrix(1,0,0,1,0,0)" fill="#030303" class="undefined-text-1" data-fill-palette-color="secondary" id="text-1"></path></svg></g></svg></g></svg></g></svg></g><g transform="matrix(1,0,0,1,0,0.3188688001742861)"><svg viewBox="0 0 127.54752006971881 127.54752006971881" height="127.54752006971881" width="127.54752006971881"><g><svg xmlns="http://www.w3.org/2000/svg" xmlns:xlink="http://www.w3.org/1999/xlink" version="1.1" x="0" y="0" viewBox="0.5 0.5 47.1 47.1" enable-background="new 0 0 48 48" xml:space="preserve" height="127.54752006971881" width="127.54752006971881" class="icon-icon-0" data-fill-palette-color="accent" id="icon-0"><path d="M45.5 0.5H2.5c-1.1 0-2 0.9-2 2v43.1c0 1.1 0.9 2 2 2h43.1c1.1 0 2-0.9 2-2V2.5C47.5 1.4 46.6 0.5 45.5 0.5zM25.4 32.3h-8.3l1.8 1.8c0.8 0.8 0.8 2 0 2.8-0.4 0.4-0.9 0.6-1.4 0.6s-1-0.2-1.4-0.6l-5.2-5.2c-0.8-0.8-0.8-2 0-2.8l5.2-5.2c0.8-0.8 2-0.8 2.8 0 0.8 0.8 0.8 2 0 2.8l-1.8 1.8h8.3c1.1 0 2 0.9 2 2S26.5 32.3 25.4 32.3zM37.1 19l-5.2 5.2c-0.4 0.4-0.9 0.6-1.4 0.6s-1-0.2-1.4-0.6c-0.8-0.8-0.8-2 0-2.8l1.8-1.8h-8.3c-1.1 0-2-0.9-2-2s0.9-2 2-2h8.3l-1.8-1.8c-0.8-0.8-0.8-2 0-2.8 0.8-0.8 2-0.8 2.8 0l5.2 5.2C37.8 17 37.8 18.3 37.1 19z" fill="#030303" data-fill-palette-color="accent"></path></svg></g></svg></g></svg></g><defs></defs></svg><rect width="395.52" height="89.3845886233838" fill="none" stroke="none" visibility="hidden"></rect></g></svg></g></svg>